<?xml version="1.0" encoding="UTF-8"?>
<svg version="1.1" xmlns="http://www.w3.org/2000/svg" width="128" height="128">
<path d="M0 0 C0.73541016 0.00202423 1.47082031 0.00404846 2.22851562 0.00613403 C2.97939453 0.00517731 3.73027344 0.00422058 4.50390625 0.00323486 C6.09440189 0.00255315 7.6849003 0.00440682 9.27539062 0.00857544 C11.71816217 0.01392386 14.16074984 0.00863019 16.60351562 0.00222778 C18.1451827 0.00288857 19.68684966 0.00416973 21.22851562 0.00613403 C21.96392578 0.0041098 22.69933594 0.00208557 23.45703125 0 C28.61356402 0.02399493 28.61356402 0.02399493 29.72851562 1.13894653 C30.22851562 3.76394653 30.22851562 3.76394653 29.72851562 7.13894653 C28.07931417 9.17197749 26.3050708 10.87633947 24.35742188 12.62332153 C22.62151495 14.0611339 22.62151495 14.0611339 21.72851562 16.13894653 C22.81712891 16.57013794 22.81712891 16.57013794 23.92773438 17.01004028 C25.64988993 17.70418667 27.36344173 18.42078141 29.06054688 19.17410278 C37.35468584 22.60931309 44.82935771 22.83470182 53.72851562 23.13894653 C53.72851562 28.74894653 53.72851562 34.35894653 53.72851562 40.13894653 C36.2974618 40.98329252 23.28085596 38.63720453 8.72851562 28.13894653 C8.220625 28.71644653 7.71273438 29.29394653 7.18945312 29.88894653 C1.51440533 36.0103464 1.51440533 36.0103464 -2.70898438 36.70144653 C-5.27148438 36.13894653 -5.27148438 36.13894653 -6.27148438 35.13894653 C-6.37235649 32.629705 -6.4112047 30.14858269 -6.40429688 27.63894653 C-6.4052536 26.88806763 -6.40621033 26.13718872 -6.40719604 25.36355591 C-6.40787776 23.77306027 -6.40602409 22.18256186 -6.40185547 20.59207153 C-6.39650704 18.14929999 -6.40180071 15.70671232 -6.40820312 13.26394653 C-6.40754234 11.72227946 -6.40626118 10.1806125 -6.40429688 8.63894653 C-6.40632111 7.90353638 -6.40834534 7.16812622 -6.41043091 6.41043091 C-6.38192715 0.28494684 -6.12548407 0.02850375 0 0 Z " fill="#000000" transform="translate(18.271484375,79.86105346679688)"/>
<path d="M0 0 C5.61 0 11.22 0 17 0 C17.84434599 17.43105383 15.498258 30.44765967 5 45 C5.86625 45.76183594 5.86625 45.76183594 6.75 46.5390625 C12.87139987 52.21411029 12.87139987 52.21411029 13.5625 56.4375 C13 59 13 59 12 60 C9.49075847 60.10087212 7.00963616 60.13972032 4.5 60.1328125 C3.74912109 60.13376923 2.99824219 60.13472595 2.22460938 60.13571167 C0.63411373 60.13639338 -0.95638467 60.13453972 -2.546875 60.13037109 C-4.98964655 60.12502267 -7.43223421 60.13031634 -9.875 60.13671875 C-11.41666707 60.13605797 -12.95833403 60.1347768 -14.5 60.1328125 C-15.23541016 60.13483673 -15.97082031 60.13686096 -16.72851562 60.13894653 C-21.88504839 60.11495161 -21.88504839 60.11495161 -23 59 C-23.10087212 56.49075847 -23.13972032 54.00963616 -23.1328125 51.5 C-23.13376923 50.74912109 -23.13472595 49.99824219 -23.13571167 49.22460938 C-23.13639338 47.63411373 -23.13453972 46.04361533 -23.13037109 44.453125 C-23.12502267 42.01035345 -23.13031634 39.56776579 -23.13671875 37.125 C-23.13605797 35.58333293 -23.1347768 34.04166597 -23.1328125 32.5 C-23.13483673 31.76458984 -23.13686096 31.02917969 -23.13894653 30.27148438 C-23.11495161 25.11495161 -23.11495161 25.11495161 -22 24 C-19.375 23.5 -19.375 23.5 -16 24 C-13.96696905 25.64920146 -12.26260706 27.42344483 -10.515625 29.37109375 C-9.07781263 31.10700068 -9.07781263 31.10700068 -7 32 C-6.56880859 30.91138672 -6.56880859 30.91138672 -6.12890625 29.80078125 C-5.43475987 28.07862569 -4.71816513 26.36507389 -3.96484375 24.66796875 C-0.52963344 16.37382978 -0.30424471 8.89915791 0 0 Z " fill="#000000" transform="translate(103,56)"/>
<path d="M0 0 C0.73541016 0.00202423 1.47082031 0.00404846 2.22851562 0.00613403 C2.97939453 0.00517731 3.73027344 0.00422058 4.50390625 0.00323486 C6.09440189 0.00255315 7.6849003 0.00440682 9.27539062 0.00857544 C11.71816217 0.01392386 14.16074984 0.00863019 16.60351562 0.00222778 C18.1451827 0.00288857 19.68684966 0.00416973 21.22851562 0.00613403 C21.96392578 0.0041098 22.69933594 0.00208557 23.45703125 0 C28.61356402 0.02399493 28.61356402 0.02399493 29.72851562 1.13894653 C29.82938774 3.64818807 29.86823595 6.12931037 29.86132812 8.63894653 C29.86228485 9.38982544 29.86324158 10.14070435 29.86422729 10.91433716 C29.86490901 12.5048328 29.86305534 14.09533121 29.85888672 15.68582153 C29.85353829 18.12859308 29.85883196 20.57118075 29.86523438 23.01394653 C29.86457359 24.55561361 29.86329243 26.09728057 29.86132812 27.63894653 C29.86335236 28.37435669 29.86537659 29.10976685 29.86746216 29.86746216 C29.84346723 35.02399493 29.84346723 35.02399493 28.72851562 36.13894653 C26.10351563 36.63894653 26.10351563 36.63894653 22.72851562 36.13894653 C20.69548467 34.48974508 18.99112269 32.71550171 17.24414062 30.76785278 C15.80632826 29.03194586 15.80632826 29.03194586 13.72851562 28.13894653 C13.29732422 29.22755981 13.29732422 29.22755981 12.85742188 30.33816528 C12.16327549 32.06032084 11.44668075 33.77387264 10.69335938 35.47097778 C7.25814906 43.76511675 7.03276034 51.23978862 6.72851562 60.13894653 C1.11851563 60.13894653 -4.49148438 60.13894653 -10.27148438 60.13894653 C-11.11583036 42.70789271 -8.76974237 29.69128687 1.72851562 15.13894653 C1.15101562 14.63105591 0.57351562 14.12316528 -0.02148438 13.59988403 C-6.14288424 7.92483624 -6.14288424 7.92483624 -6.83398438 3.70144653 C-5.86067127 -0.73253538 -4.22143871 0.01964365 0 0 Z " fill="#000000" transform="translate(18.271484375,11.861053466796875)"/>
<path d="M0 0 C17.43105383 -0.84434599 30.44765967 1.501742 45 12 C45.76183594 11.13375 45.76183594 11.13375 46.5390625 10.25 C52.21411029 4.12860013 52.21411029 4.12860013 56.4375 3.4375 C59 4 59 4 60 5 C60.10087212 7.50924153 60.13972032 9.99036384 60.1328125 12.5 C60.13376923 13.25087891 60.13472595 14.00175781 60.13571167 14.77539062 C60.13639338 16.36588627 60.13453972 17.95638467 60.13037109 19.546875 C60.12502267 21.98964655 60.13031634 24.43223421 60.13671875 26.875 C60.13605797 28.41666707 60.1347768 29.95833403 60.1328125 31.5 C60.13483673 32.23541016 60.13686096 32.97082031 60.13894653 33.72851562 C60.11495161 38.88504839 60.11495161 38.88504839 59 40 C56.49075847 40.10087212 54.00963616 40.13972032 51.5 40.1328125 C50.74912109 40.13376923 49.99824219 40.13472595 49.22460938 40.13571167 C47.63411373 40.13639338 46.04361533 40.13453972 44.453125 40.13037109 C42.01035345 40.12502267 39.56776579 40.13031634 37.125 40.13671875 C35.58333293 40.13605797 34.04166597 40.1347768 32.5 40.1328125 C31.76458984 40.13483673 31.02917969 40.13686096 30.27148438 40.13894653 C25.11495161 40.11495161 25.11495161 40.11495161 24 39 C23.5 36.375 23.5 36.375 24 33 C25.64920146 30.96696905 27.42344483 29.26260706 29.37109375 27.515625 C31.10700068 26.07781263 31.10700068 26.07781263 32 24 C30.91138672 23.56880859 30.91138672 23.56880859 29.80078125 23.12890625 C28.07862569 22.43475987 26.36507389 21.71816513 24.66796875 20.96484375 C16.37382978 17.52963344 8.89915791 17.30424471 0 17 C0 11.39 0 5.78 0 0 Z " fill="#000000" transform="translate(56,8)"/>
</svg>
